<svg xmlns="http://www.w3.org/2000/svg" width="931" height="978" viewBox="0 0 931 978" version="1.1"><path d="" stroke="none" fill="#000000" fill-rule="evenodd"/><path d="M 452.684 38.449 C 447.928 40.145, 446.141 41.735, 439.137 50.500 C 436.060 54.350, 426.993 65.150, 418.988 74.500 C 406.252 89.376, 371.898 129.844, 354.638 150.302 C 351.414 154.124, 337.225 170.807, 323.106 187.375 C 308.988 203.944, 287.551 229.158, 275.468 243.408 C 263.386 257.657, 245.400 278.845, 235.500 290.493 C 225.600 302.140, 207.588 323.332, 195.474 337.585 C 183.359 351.838, 160.657 378.575, 145.024 397 C 129.392 415.425, 113.748 433.781, 110.261 437.791 C 100.216 449.340, 100.237 448.657, 109.627 458.296 C 209.455 560.780, 304.209 656, 306.365 656 C 307.349 656, 342.465 621.743, 386.575 577.750 C 475.465 489.096, 467.264 499.214, 461.902 484.818 C 457.416 472.776, 451.999 456.351, 452.007 454.819 C 452.017 453.124, 465.835 439.549, 571.580 337.348 C 584.186 325.164, 599.900 309.856, 606.500 303.331 C 618.630 291.338, 646.911 263.735, 679.039 232.533 C 711.308 201.193, 771.323 142.697, 788 126.330 C 797.075 117.424, 807.454 107.903, 811.065 105.174 C 822.063 96.863, 821.552 98.767, 821.169 67.500 C 820.988 52.650, 820.423 40.070, 819.914 39.545 C 819.343 38.955, 769.571 38.316, 689.745 37.874 C 489.983 36.767, 457.175 36.847, 452.684 38.449" stroke="none" fill="#04b4e3" fill-rule="evenodd"/><path d="M 599.795 391.777 C 514.097 477.495, 519.480 471.098, 523.808 482.067 C 536.383 513.943, 536.624 516.486, 527.776 523.902 C 520.678 529.852, 486.639 562.553, 449.500 599.101 C 435.750 612.632, 418.920 629.058, 412.100 635.602 C 405.281 642.146, 395.372 651.775, 390.081 657 C 384.790 662.225, 369.223 677.300, 355.489 690.500 C 341.754 703.700, 320.613 724.223, 308.508 736.107 C 280.313 763.789, 271.743 772.138, 242.557 800.353 C 229.388 813.084, 211.388 830.526, 202.557 839.113 C 193.726 847.701, 183.350 857.413, 179.500 860.696 C 163.281 874.526, 163.304 874.454, 164.825 906.217 C 165.462 919.508, 166.324 930.717, 166.741 931.126 C 169.301 933.632, 535.992 932.456, 538.518 929.934 C 539.931 928.522, 543.430 924.381, 546.294 920.730 C 551.341 914.296, 555.786 909.037, 598.472 859 C 619.406 834.461, 640.918 809.142, 666.805 778.573 C 675.223 768.633, 684.448 757.816, 687.305 754.535 C 690.162 751.254, 700.150 739.520, 709.500 728.460 C 735.590 697.598, 764.477 663.584, 774.010 652.500 C 778.741 647, 791.357 632.150, 802.047 619.500 C 812.737 606.850, 826.887 590.173, 833.491 582.441 C 840.096 574.708, 851.350 561.469, 858.500 553.020 C 865.650 544.570, 873.696 535.147, 876.380 532.079 C 887.704 519.133, 893.118 527.199, 831.075 464.590 C 704.795 337.158, 681.480 314, 679.498 314.027 C 678.203 314.045, 650.138 341.423, 599.795 391.777" stroke="none" fill="#acacac" fill-rule="evenodd"/></svg>