<svg xmlns="http://www.w3.org/2000/svg" xmlns:xlink="http://www.w3.org/1999/xlink" id="svg" version="1.1" viewBox="56.56 148.26 275.78 86.38"><g id="svgg"><path id="path0" d="M110.989 175.726 C 110.614 176.126,110.414 176.570,110.544 176.714 C 110.674 176.858,110.621 176.884,110.426 176.772 C 110.043 176.554,109.280 177.267,109.534 177.607 C 109.618 177.720,109.595 177.743,109.482 177.659 C 109.174 177.429,108.417 178.152,108.620 178.481 C 108.717 178.637,108.610 178.727,108.383 178.680 C 108.153 178.632,108.015 178.803,108.073 179.063 C 108.130 179.320,108.073 179.427,107.945 179.300 C 107.611 178.965,106.843 179.691,107.085 180.114 C 107.196 180.309,107.173 180.365,107.032 180.237 C 106.703 179.939,105.888 180.604,106.120 180.981 C 106.217 181.137,106.110 181.227,105.883 181.180 C 105.655 181.132,105.507 181.280,105.555 181.508 C 105.602 181.735,105.512 181.842,105.356 181.745 C 104.979 181.513,104.314 182.328,104.612 182.657 C 104.740 182.798,104.684 182.821,104.489 182.710 C 104.066 182.468,103.340 183.236,103.675 183.570 C 103.802 183.698,103.695 183.755,103.438 183.698 C 103.178 183.640,103.007 183.778,103.055 184.008 C 103.102 184.235,103.012 184.342,102.856 184.245 C 102.527 184.042,101.804 184.799,102.034 185.107 C 102.118 185.220,102.095 185.243,101.982 185.159 C 101.652 184.913,100.924 185.663,101.145 186.021 C 101.256 186.200,101.205 186.259,101.031 186.152 C 100.626 185.901,99.292 187.305,99.607 187.651 C 99.737 187.795,99.684 187.821,99.489 187.710 C 99.058 187.464,98.348 188.235,98.675 188.594 C 98.802 188.735,98.749 188.761,98.557 188.651 C 98.049 188.361,97.086 189.562,97.031 190.554 C 96.974 191.582,97.456 193.125,97.833 193.125 C 97.983 193.125,98.016 193.359,97.906 193.645 C 97.756 194.035,97.817 194.098,98.150 193.898 C 98.760 193.530,97.873 194.682,97.104 195.256 C 96.800 195.482,96.635 195.802,96.737 195.967 C 96.838 196.131,96.798 196.227,96.647 196.180 C 96.208 196.042,89.372 202.555,89.589 202.905 C 89.696 203.079,89.645 203.135,89.474 203.030 C 89.068 202.779,86.789 205.115,87.103 205.460 C 87.235 205.606,87.192 205.639,87.006 205.533 C 86.626 205.317,83.330 208.509,83.586 208.846 C 83.676 208.965,83.661 208.997,83.552 208.917 C 83.226 208.677,74.996 216.616,75.211 216.963 C 75.320 217.140,75.263 217.194,75.084 217.083 C 74.679 216.833,73.983 217.620,74.300 217.969 C 74.427 218.110,74.376 218.137,74.186 218.028 C 73.755 217.783,72.408 219.170,72.732 219.526 C 72.862 219.670,72.801 219.691,72.595 219.574 C 72.179 219.335,63.972 227.101,64.219 227.500 C 64.301 227.633,64.124 227.723,63.825 227.699 C 62.817 227.620,62.230 229.544,62.456 232.188 L 62.656 234.531 80.000 234.618 C 89.539 234.665,97.625 234.635,97.969 234.551 C 98.579 234.402,101.094 231.509,101.094 230.956 C 101.094 230.802,101.222 230.560,101.378 230.417 C 101.545 230.264,101.568 230.349,101.433 230.625 C 101.306 230.883,101.494 230.763,101.850 230.358 C 102.205 229.953,102.429 229.512,102.346 229.378 C 102.262 229.243,102.439 228.942,102.738 228.707 C 103.236 228.317,103.246 228.333,102.856 228.906 C 102.622 229.250,102.933 228.987,103.546 228.322 C 104.160 227.657,104.633 226.953,104.597 226.759 C 104.561 226.565,104.699 226.439,104.905 226.479 C 105.380 226.571,106.620 224.857,106.319 224.524 C 106.195 224.387,106.259 224.369,106.460 224.485 C 106.786 224.671,108.354 222.915,108.233 222.500 C 108.208 222.414,108.306 222.376,108.452 222.416 C 108.831 222.520,110.025 220.754,109.756 220.486 C 109.633 220.362,109.742 220.307,110.000 220.365 C 110.260 220.422,110.430 220.284,110.383 220.055 C 110.336 219.827,110.434 219.726,110.602 219.829 C 110.976 220.061,111.627 218.928,111.317 218.585 C 111.194 218.449,111.251 218.427,111.443 218.536 C 111.864 218.777,112.827 217.779,112.944 216.981 C 112.990 216.665,113.226 216.400,113.467 216.392 C 113.709 216.384,113.868 216.198,113.820 215.978 C 113.773 215.758,113.872 215.663,114.039 215.767 C 114.408 215.995,115.071 214.863,114.755 214.546 C 114.632 214.423,114.742 214.370,115.000 214.427 C 115.260 214.485,115.430 214.347,115.383 214.117 C 115.336 213.890,115.434 213.788,115.602 213.892 C 115.919 214.088,116.656 213.010,116.388 212.742 C 116.304 212.658,116.484 212.393,116.789 212.154 C 117.300 211.753,117.310 211.768,116.919 212.344 C 116.685 212.688,117.063 212.344,117.760 211.581 C 118.456 210.818,118.942 210.058,118.840 209.892 C 118.737 209.727,118.809 209.687,118.999 209.804 C 119.395 210.049,120.092 208.947,119.755 208.609 C 119.632 208.486,119.742 208.432,120.000 208.490 C 120.260 208.547,120.430 208.409,120.383 208.180 C 120.336 207.952,120.432 207.849,120.596 207.951 C 120.931 208.158,121.928 206.900,121.709 206.547 C 121.632 206.423,121.814 206.129,122.113 205.895 C 122.611 205.504,122.621 205.521,122.230 206.094 C 121.995 206.438,122.301 206.162,122.910 205.481 C 123.519 204.800,123.936 204.110,123.835 203.948 C 123.735 203.786,123.805 203.747,123.990 203.862 C 124.289 204.046,125.367 202.870,125.669 202.031 C 125.731 201.859,125.879 201.751,125.998 201.791 C 126.347 201.907,127.504 200.111,127.256 199.836 C 127.133 199.699,127.188 199.677,127.380 199.786 C 127.798 200.025,128.758 199.037,128.893 198.231 C 128.946 197.915,129.133 197.687,129.309 197.725 C 129.748 197.818,131.425 195.569,131.305 195.047 C 131.251 194.814,131.357 194.717,131.542 194.831 C 131.725 194.944,131.875 194.946,131.875 194.836 C 131.875 194.486,125.168 187.969,124.899 188.057 C 124.757 188.103,124.720 188.012,124.817 187.856 C 125.050 187.479,124.234 186.814,123.906 187.112 C 123.765 187.240,123.737 187.191,123.843 187.004 C 124.089 186.572,121.770 184.280,121.415 184.603 C 121.269 184.735,121.241 184.684,121.353 184.489 C 121.599 184.058,120.828 183.348,120.468 183.675 C 120.327 183.802,120.301 183.751,120.409 183.561 C 120.626 183.180,119.298 181.774,118.961 182.028 C 118.845 182.116,118.819 182.095,118.904 181.982 C 119.150 181.652,118.399 180.924,118.041 181.145 C 117.862 181.256,117.806 181.200,117.917 181.021 C 118.162 180.624,117.379 179.912,117.055 180.237 C 116.927 180.365,116.870 180.258,116.927 180.000 C 116.985 179.740,116.847 179.570,116.617 179.617 C 116.390 179.664,116.283 179.575,116.380 179.418 C 116.583 179.089,115.826 178.367,115.518 178.596 C 115.405 178.681,115.382 178.657,115.466 178.544 C 115.720 178.205,114.957 177.491,114.574 177.710 C 114.379 177.821,114.327 177.794,114.459 177.648 C 114.730 177.350,112.567 175.000,112.022 175.000 C 111.829 175.000,111.364 175.327,110.989 175.726 M86.563 206.030 C 86.563 206.081,85.965 206.679,85.234 207.358 L 83.906 208.594 85.142 207.266 C 86.290 206.030,86.563 205.794,86.563 206.030 " stroke="none" fill="#ababab" fill-rule="evenodd"/><path id="path1" d="M90.254 148.319 C 89.964 148.405,88.066 150.452,86.035 152.868 C 74.289 166.843,57.640 186.370,57.059 186.852 C 56.786 187.078,56.563 187.545,56.563 187.889 C 56.563 188.647,75.491 207.813,76.239 207.813 C 76.808 207.813,91.563 193.133,91.563 192.567 C 91.563 192.362,91.281 191.454,90.938 190.550 C 90.594 189.646,90.313 188.831,90.313 188.738 C 90.313 188.597,112.604 166.779,122.893 156.849 L 125.942 153.906 125.940 151.347 C 125.939 149.939,125.832 148.725,125.703 148.649 C 125.368 148.451,90.889 148.130,90.254 148.319 " stroke="none" fill="#04b3e4" fill-rule="evenodd"/><path id="path2" d="M167.725 163.549 C 167.816 163.696,167.574 163.717,167.188 163.594 C 166.677 163.432,166.548 163.474,166.719 163.750 C 166.889 164.026,166.761 164.068,166.250 163.906 C 165.723 163.739,165.609 163.783,165.793 164.082 C 165.968 164.365,165.890 164.424,165.528 164.285 C 165.216 164.165,164.895 164.297,164.705 164.622 C 164.534 164.916,164.390 165.036,164.385 164.889 C 164.379 164.742,163.738 165.297,162.959 166.121 C 162.179 166.946,161.613 167.805,161.699 168.029 C 161.785 168.254,161.737 168.438,161.593 168.438 C 161.449 168.438,161.237 169.142,161.123 170.003 C 160.580 174.093,162.924 176.858,168.139 178.280 C 172.221 179.393,173.111 179.760,173.952 180.676 C 174.577 181.358,175.170 184.205,174.615 183.862 C 174.483 183.780,174.375 183.862,174.375 184.044 C 174.375 184.931,173.499 185.942,172.923 185.720 C 172.690 185.631,172.500 185.684,172.500 185.839 C 172.500 185.993,171.621 186.121,170.547 186.123 C 168.321 186.126,166.379 184.810,166.189 183.169 C 166.036 181.843,161.148 181.875,160.995 183.203 C 160.940 183.676,161.042 184.063,161.219 184.063 C 161.397 184.063,161.467 184.261,161.374 184.503 C 160.758 186.107,165.746 190.401,167.557 189.826 C 167.989 189.688,168.132 189.735,167.989 189.967 C 167.840 190.208,168.490 190.313,170.138 190.313 C 171.592 190.313,172.500 190.185,172.500 189.982 C 172.500 189.800,172.643 189.739,172.819 189.848 C 173.236 190.105,175.313 189.416,175.313 189.020 C 175.313 188.851,175.434 188.788,175.581 188.879 C 176.056 189.173,178.395 186.765,179.044 185.313 C 179.713 183.819,179.915 180.803,179.370 180.466 C 179.195 180.358,179.133 180.138,179.232 179.978 C 179.331 179.818,179.255 179.688,179.063 179.688 C 178.870 179.688,178.808 179.534,178.924 179.347 C 179.169 178.950,176.901 176.509,176.512 176.750 C 176.368 176.839,176.250 176.740,176.250 176.529 C 176.250 176.318,176.163 176.233,176.057 176.339 C 175.950 176.446,175.658 176.327,175.406 176.076 C 175.155 175.825,174.820 175.699,174.662 175.797 C 174.504 175.894,174.375 175.802,174.375 175.591 C 174.375 175.381,174.282 175.301,174.169 175.414 C 174.056 175.527,173.790 175.475,173.577 175.299 C 173.365 175.122,173.071 175.005,172.924 175.039 C 172.777 175.072,172.445 175.019,172.188 174.921 C 170.720 174.362,169.582 174.091,169.339 174.241 C 169.187 174.335,169.063 174.251,169.063 174.055 C 169.063 173.859,168.888 173.756,168.675 173.827 C 168.461 173.898,168.098 173.768,167.868 173.538 C 167.638 173.308,167.299 173.213,167.114 173.327 C 166.929 173.441,166.867 173.391,166.976 173.215 C 167.084 173.040,166.895 172.645,166.555 172.337 C 165.337 171.235,165.857 168.819,167.494 167.972 C 169.775 166.792,173.007 167.740,173.888 169.848 L 174.354 170.964 176.786 170.873 C 179.039 170.788,179.226 170.729,179.319 170.078 C 179.374 169.691,179.281 169.375,179.113 169.375 C 178.946 169.375,178.882 169.094,178.972 168.750 C 179.073 168.365,178.982 168.125,178.734 168.125 C 178.514 168.125,178.425 168.033,178.537 167.922 C 178.649 167.810,178.496 167.518,178.198 167.273 C 177.860 166.995,177.832 166.914,178.125 167.055 C 178.383 167.180,178.102 166.756,177.500 166.114 C 176.327 164.862,174.890 163.964,174.571 164.283 C 174.463 164.391,174.375 164.300,174.375 164.081 C 174.375 163.856,174.172 163.761,173.906 163.863 C 173.648 163.962,173.438 163.898,173.438 163.722 C 173.438 163.545,173.297 163.488,173.125 163.594 C 172.953 163.700,172.637 163.678,172.423 163.546 C 171.886 163.214,167.520 163.217,167.725 163.549 M272.188 163.459 C 272.188 163.650,271.921 163.708,271.563 163.594 C 271.219 163.485,270.938 163.532,270.938 163.700 C 270.938 163.867,270.656 163.930,270.313 163.841 C 269.969 163.751,269.688 163.804,269.688 163.960 C 269.688 164.115,269.374 164.266,268.990 164.295 C 268.607 164.323,268.115 164.591,267.897 164.889 C 267.678 165.188,267.500 165.308,267.500 165.156 C 267.500 165.005,267.279 165.154,267.008 165.487 C 266.738 165.821,266.612 165.883,266.730 165.625 C 266.847 165.367,266.566 165.578,266.105 166.094 C 265.644 166.609,265.369 166.820,265.493 166.563 C 265.617 166.305,265.206 166.578,264.578 167.171 C 263.313 168.365,263.031 168.885,264.159 167.945 C 264.556 167.614,264.380 167.822,263.768 168.407 C 263.157 168.991,262.867 169.367,263.125 169.243 C 263.418 169.101,263.390 169.183,263.052 169.461 C 262.754 169.705,262.601 169.997,262.713 170.109 C 262.825 170.221,262.744 170.313,262.534 170.313 C 262.323 170.313,262.238 170.453,262.344 170.625 C 262.450 170.797,262.380 170.938,262.188 170.938 C 261.995 170.938,261.925 171.078,262.031 171.250 C 262.137 171.422,262.060 171.563,261.860 171.563 C 261.660 171.563,261.577 171.773,261.676 172.031 C 261.774 172.289,261.704 172.500,261.519 172.500 C 261.313 172.500,261.261 172.814,261.385 173.307 C 261.516 173.831,261.473 174.044,261.263 173.914 C 261.046 173.780,260.938 174.712,260.938 176.700 C 260.938 178.343,261.043 179.688,261.172 179.688 C 261.301 179.689,261.422 180.075,261.440 180.548 C 261.577 183.983,267.475 189.691,271.015 189.814 C 271.487 189.830,271.874 189.949,271.874 190.078 C 271.875 190.207,272.930 190.313,274.219 190.313 C 275.672 190.313,276.563 190.186,276.563 189.979 C 276.563 189.795,276.826 189.729,277.151 189.832 C 277.885 190.065,281.119 188.881,281.911 188.089 C 282.235 187.765,282.500 187.589,282.500 187.699 C 282.500 187.808,283.190 187.196,284.033 186.340 C 285.614 184.733,287.352 181.769,287.024 181.238 C 286.922 181.073,287.003 180.938,287.206 180.938 C 287.419 180.938,287.504 180.676,287.409 180.313 C 287.320 179.969,287.355 179.688,287.489 179.688 C 287.902 179.688,288.157 177.195,287.940 175.275 C 287.826 174.271,287.623 173.517,287.489 173.600 C 287.355 173.683,287.319 173.469,287.409 173.125 C 287.499 172.781,287.420 172.500,287.234 172.500 C 287.047 172.500,286.969 172.307,287.059 172.072 C 287.149 171.836,287.011 171.431,286.752 171.171 C 286.492 170.912,286.376 170.603,286.495 170.485 C 286.613 170.366,286.360 169.986,285.933 169.639 C 285.506 169.292,285.367 169.101,285.625 169.215 C 285.935 169.351,285.910 169.271,285.552 168.977 C 285.254 168.732,285.075 168.466,285.155 168.386 C 285.235 168.306,284.741 167.694,284.057 167.026 C 283.372 166.357,282.813 165.903,282.813 166.015 C 282.813 166.128,282.435 165.870,281.973 165.443 C 281.512 165.015,280.942 164.739,280.707 164.829 C 280.472 164.919,280.366 164.854,280.471 164.684 C 280.576 164.514,280.443 164.357,280.175 164.336 C 279.287 164.265,279.116 164.221,278.902 164.006 C 278.785 163.889,278.492 163.869,278.251 163.961 C 278.010 164.054,277.813 163.987,277.813 163.813 C 277.813 163.639,277.547 163.565,277.223 163.650 C 276.898 163.735,276.539 163.652,276.423 163.465 C 276.159 163.038,274.688 163.015,274.688 163.438 C 274.688 163.609,274.468 163.750,274.200 163.750 C 273.932 163.750,273.800 163.609,273.906 163.438 C 274.019 163.255,273.701 163.125,273.143 163.125 C 272.618 163.125,272.188 163.275,272.188 163.459 M186.414 163.674 C 183.917 163.823,184.073 162.930,184.067 177.109 L 184.063 189.688 185.234 189.738 C 185.879 189.766,187.001 189.814,187.727 189.845 L 189.048 189.901 189.133 184.567 L 189.219 179.232 193.064 183.678 C 195.178 186.124,197.050 188.125,197.223 188.125 C 197.395 188.125,197.462 188.247,197.370 188.396 C 197.278 188.545,197.495 188.931,197.853 189.255 C 198.632 189.961,204.638 190.225,204.060 189.528 C 203.893 189.326,203.821 189.096,203.901 189.016 C 203.981 188.936,202.860 187.642,201.409 186.142 C 199.958 184.642,198.942 183.517,199.151 183.642 C 199.360 183.768,198.477 182.702,197.188 181.273 C 195.898 179.844,194.473 178.232,194.021 177.691 L 193.198 176.706 198.396 170.759 C 204.244 164.069,204.248 164.063,202.500 164.063 C 200.992 164.063,201.166 164.084,199.984 163.745 C 198.961 163.452,196.608 165.362,195.117 167.694 C 194.801 168.189,194.291 168.779,193.985 169.006 C 193.678 169.232,193.510 169.552,193.612 169.717 C 193.713 169.881,193.681 169.977,193.539 169.930 C 193.397 169.882,193.220 169.984,193.146 170.156 C 193.072 170.328,192.688 170.723,192.293 171.034 C 191.898 171.344,191.601 171.696,191.633 171.815 C 191.666 171.934,191.104 172.609,190.385 173.316 L 189.077 174.600 188.991 169.123 C 188.939 165.772,188.785 163.629,188.594 163.604 C 188.422 163.581,187.441 163.612,186.414 163.674 M205.941 164.386 C 206.166 165.170,208.204 169.165,211.355 175.000 C 214.074 180.033,213.897 179.375,214.004 184.844 L 214.101 189.844 216.224 189.742 L 218.346 189.640 218.547 186.617 C 218.657 184.954,218.748 182.961,218.750 182.188 C 218.752 181.414,218.939 180.430,219.164 180.000 C 219.390 179.570,220.744 176.969,222.174 174.219 C 223.604 171.469,225.295 168.234,225.933 167.031 C 226.571 165.828,227.026 164.648,226.943 164.410 C 226.845 164.123,226.928 164.058,227.188 164.219 C 227.439 164.374,227.533 164.317,227.447 164.061 C 227.116 163.066,222.083 163.573,222.000 164.609 C 221.927 165.517,221.859 165.652,221.566 165.471 C 221.395 165.365,221.333 165.478,221.428 165.725 C 221.522 165.969,221.386 166.382,221.127 166.641 C 220.867 166.901,220.742 167.200,220.848 167.307 C 220.955 167.413,220.869 167.500,220.659 167.500 C 220.448 167.500,220.363 167.641,220.469 167.813 C 220.575 167.984,220.517 168.125,220.341 168.125 C 220.164 168.125,220.100 168.335,220.198 168.591 C 220.302 168.861,220.159 169.141,219.858 169.256 C 219.573 169.366,219.413 169.648,219.503 169.884 C 219.594 170.120,219.549 170.313,219.403 170.313 C 219.257 170.313,218.600 171.508,217.942 172.969 C 216.596 175.955,216.446 176.072,215.937 174.528 C 215.737 173.925,215.447 173.511,215.291 173.607 C 215.135 173.704,215.091 173.564,215.193 173.297 C 215.296 173.030,215.216 172.813,215.015 172.813 C 214.815 172.813,214.731 172.683,214.828 172.525 C 214.926 172.367,214.800 172.032,214.549 171.781 C 214.298 171.530,214.179 171.237,214.286 171.131 C 214.392 171.025,214.307 170.938,214.096 170.938 C 213.885 170.938,213.793 170.808,213.891 170.650 C 213.988 170.492,213.863 170.157,213.612 169.906 C 213.360 169.655,213.243 169.361,213.351 169.253 C 213.460 169.145,213.291 168.868,212.976 168.638 C 212.662 168.408,212.505 168.058,212.627 167.860 C 212.749 167.662,212.692 167.500,212.500 167.500 C 212.308 167.500,212.228 167.374,212.324 167.220 C 212.419 167.066,212.272 166.854,211.997 166.749 C 211.712 166.640,211.575 166.357,211.677 166.091 C 211.775 165.835,211.711 165.625,211.534 165.625 C 211.358 165.625,211.293 165.496,211.391 165.338 C 211.488 165.180,211.351 164.833,211.085 164.568 C 210.820 164.302,210.643 163.994,210.692 163.884 C 210.741 163.773,209.637 163.649,208.239 163.608 L 205.696 163.534 205.941 164.386 M242.344 164.046 L 240.156 164.219 240.100 177.105 C 240.061 186.079,240.147 190.054,240.383 190.200 C 240.574 190.318,240.632 190.265,240.517 190.079 C 240.380 189.857,241.009 189.764,242.424 189.796 L 244.535 189.844 244.641 184.844 C 244.766 178.910,244.251 179.655,248.338 179.494 C 254.220 179.262,257.023 177.769,258.231 174.223 C 258.810 172.525,258.919 170.142,258.432 169.841 C 258.258 169.733,258.196 169.513,258.295 169.353 C 258.393 169.193,258.317 169.063,258.124 169.063 C 257.931 169.063,257.815 168.814,257.867 168.511 C 257.918 168.208,257.681 167.638,257.339 167.245 C 255.850 165.530,254.917 164.702,254.656 164.863 C 254.501 164.959,254.375 164.880,254.375 164.688 C 254.375 164.495,254.234 164.425,254.063 164.531 C 253.891 164.637,253.750 164.560,253.750 164.360 C 253.750 164.160,253.553 164.071,253.312 164.164 C 253.071 164.256,252.787 164.246,252.682 164.140 C 252.432 163.890,245.152 163.823,242.344 164.046 M293.906 164.063 L 291.719 164.219 291.638 177.031 L 291.558 189.844 294.106 189.853 L 296.654 189.862 296.445 184.775 L 296.237 179.688 297.728 179.692 L 299.219 179.696 302.130 184.792 L 305.042 189.888 307.781 189.866 C 309.699 189.850,310.521 189.731,310.521 189.467 C 310.521 189.260,310.404 189.162,310.260 189.251 C 310.117 189.339,310.000 189.263,310.000 189.081 C 310.000 188.471,309.908 188.283,309.406 187.867 C 309.012 187.541,309.005 187.496,309.375 187.656 C 309.688 187.791,309.663 187.711,309.302 187.414 C 309.004 187.170,308.848 186.881,308.956 186.773 C 309.064 186.665,308.922 186.489,308.640 186.381 C 308.359 186.273,308.201 186.067,308.290 185.923 C 308.379 185.780,308.140 185.373,307.761 185.019 C 307.381 184.665,307.193 184.375,307.345 184.375 C 307.496 184.375,307.346 184.154,307.013 183.883 C 306.679 183.613,306.617 183.482,306.875 183.594 C 307.156 183.715,307.117 183.611,306.776 183.333 C 306.464 183.078,306.218 182.786,306.229 182.685 C 306.300 182.058,306.212 181.861,305.938 182.031 C 305.675 182.193,305.471 181.726,305.699 181.484 C 305.739 181.441,305.463 180.905,305.085 180.293 L 304.397 179.180 305.500 178.781 C 308.599 177.661,311.517 172.296,310.013 170.485 C 309.804 170.233,309.714 169.897,309.813 169.737 C 310.054 169.348,309.393 167.500,309.013 167.500 C 308.848 167.500,308.786 167.382,308.875 167.238 C 309.087 166.894,306.744 164.610,306.465 164.889 C 306.347 165.008,306.250 164.932,306.250 164.721 C 306.250 164.510,306.109 164.425,305.938 164.531 C 305.766 164.637,305.625 164.573,305.625 164.387 C 305.625 164.184,305.315 164.128,304.844 164.247 C 304.414 164.355,304.062 164.322,304.062 164.175 C 304.062 163.883,297.438 163.810,293.906 164.063 M313.867 165.625 L 313.906 167.344 317.344 167.500 L 320.781 167.656 320.938 178.490 C 321.112 190.602,320.940 189.765,323.267 189.799 C 325.801 189.835,325.674 190.470,325.566 178.247 L 325.469 167.344 328.643 167.344 C 330.389 167.344,331.654 167.457,331.455 167.595 C 331.232 167.750,331.332 167.808,331.719 167.747 C 332.256 167.662,332.344 167.406,332.344 165.933 L 332.344 164.219 323.085 164.063 L 313.827 163.906 313.867 165.625 M251.281 167.816 C 253.460 168.421,254.785 172.094,253.365 173.590 C 253.061 173.910,252.813 174.366,252.813 174.604 C 252.813 174.842,252.672 174.950,252.500 174.844 C 252.328 174.738,252.188 174.808,252.188 175.000 C 252.188 175.192,252.047 175.262,251.875 175.156 C 251.703 175.050,251.563 175.122,251.563 175.315 C 251.563 175.525,251.310 175.587,250.938 175.469 C 250.594 175.360,250.313 175.395,250.313 175.546 C 250.313 175.698,249.012 175.813,247.422 175.802 L 244.531 175.781 244.618 172.031 C 244.666 169.969,244.767 168.105,244.843 167.891 C 245.013 167.407,249.618 167.354,251.281 167.816 M277.658 168.018 C 280.294 168.916,282.813 172.211,282.813 174.762 C 282.813 175.085,282.953 175.262,283.125 175.156 C 283.319 175.036,283.438 175.616,283.438 176.682 C 283.438 177.627,283.285 178.495,283.098 178.611 C 282.911 178.726,282.828 179.086,282.912 179.411 C 283.004 179.761,282.938 179.921,282.750 179.805 C 282.553 179.683,282.511 179.854,282.639 180.257 C 282.775 180.685,282.646 181.104,282.262 181.488 C 281.942 181.808,281.725 182.207,281.781 182.374 C 281.837 182.542,281.298 183.236,280.583 183.917 C 279.868 184.599,279.385 184.945,279.509 184.688 C 279.632 184.430,279.512 184.492,279.242 184.825 C 278.971 185.159,278.746 185.300,278.740 185.138 C 278.735 184.976,278.584 185.096,278.405 185.404 C 278.191 185.773,277.872 185.899,277.477 185.774 C 277.146 185.669,276.875 185.706,276.875 185.857 C 276.875 186.008,275.750 186.131,274.375 186.131 C 273.000 186.131,271.875 186.008,271.875 185.857 C 271.875 185.706,271.604 185.669,271.273 185.774 C 270.878 185.899,270.559 185.773,270.345 185.404 C 270.166 185.096,270.015 184.976,270.010 185.138 C 270.004 185.300,269.779 185.159,269.508 184.825 C 269.238 184.492,269.105 184.395,269.214 184.609 C 269.546 185.264,269.236 185.054,268.108 183.859 C 267.516 183.232,267.235 182.835,267.483 182.978 C 267.743 183.127,267.643 182.827,267.249 182.274 C 266.871 181.744,266.563 181.156,266.563 180.967 C 266.563 180.779,266.457 180.625,266.328 180.624 C 266.023 180.624,265.801 178.794,265.799 176.250 C 265.792 169.830,271.450 165.902,277.658 168.018 M303.245 167.799 C 304.768 168.378,306.104 172.214,305.187 173.375 C 304.794 173.873,303.540 175.131,303.052 175.519 C 302.870 175.663,301.299 175.738,299.559 175.684 L 296.397 175.588 296.446 171.622 C 296.472 169.441,296.509 167.621,296.528 167.578 C 296.628 167.350,302.577 167.545,303.245 167.799 M170.938 203.501 C 170.938 203.661,170.668 203.707,170.339 203.602 C 170.010 203.498,169.648 203.561,169.536 203.742 C 169.424 203.924,169.201 203.992,169.041 203.893 C 168.881 203.794,168.750 203.858,168.750 204.034 C 168.750 204.211,168.539 204.274,168.281 204.176 C 168.023 204.077,167.813 204.160,167.813 204.360 C 167.813 204.560,167.687 204.647,167.533 204.551 C 167.379 204.456,167.169 204.598,167.066 204.865 C 166.963 205.133,166.738 205.265,166.565 205.158 C 166.392 205.051,166.250 205.120,166.250 205.313 C 166.250 205.505,166.128 205.587,165.980 205.495 C 165.653 205.293,161.890 209.148,161.838 209.739 C 161.818 209.968,161.818 210.262,161.838 210.391 C 161.858 210.520,161.748 210.625,161.593 210.625 C 161.198 210.625,160.614 212.421,160.828 212.978 C 160.925 213.231,160.838 213.438,160.634 213.438 C 160.403 213.438,160.299 213.841,160.357 214.514 C 160.408 215.107,160.349 215.693,160.225 215.817 C 159.883 216.158,159.956 217.500,160.316 217.500 C 160.510 217.500,160.555 217.984,160.433 218.750 C 160.290 219.641,160.343 220.000,160.618 220.000 C 160.831 220.000,160.926 220.203,160.831 220.452 C 160.057 222.468,167.242 230.021,169.214 229.264 C 169.452 229.172,169.703 229.265,169.771 229.471 C 169.964 230.049,177.423 229.979,178.438 229.390 C 178.867 229.140,179.392 228.907,179.605 228.871 C 180.334 228.749,182.196 227.443,182.529 226.820 C 182.713 226.477,182.941 226.274,183.037 226.370 C 183.278 226.611,185.308 223.995,185.118 223.687 C 185.033 223.550,185.120 223.438,185.313 223.438 C 185.505 223.438,185.575 223.297,185.469 223.125 C 185.363 222.953,185.425 222.813,185.607 222.813 C 185.789 222.813,185.938 222.637,185.938 222.422 C 185.939 222.142,185.342 222.049,183.829 222.094 C 182.331 222.138,181.946 222.079,182.500 221.890 C 183.270 221.629,183.267 221.625,182.344 221.606 C 181.722 221.594,181.038 221.913,180.313 222.554 C 179.711 223.085,179.430 223.409,179.688 223.273 C 179.945 223.137,179.805 223.377,179.375 223.805 C 178.945 224.234,178.523 224.593,178.438 224.602 C 177.675 224.688,176.921 225.134,177.086 225.401 C 177.212 225.605,177.096 225.657,176.780 225.536 C 176.500 225.428,176.195 225.461,176.103 225.609 C 176.012 225.758,175.656 225.805,175.312 225.715 C 174.963 225.624,174.688 225.706,174.688 225.901 C 174.688 226.319,172.597 226.375,172.448 225.961 C 172.391 225.803,171.922 225.620,171.406 225.556 C 165.509 224.822,162.941 214.680,167.439 209.882 C 170.573 206.538,176.686 206.663,179.526 210.129 L 180.720 211.586 183.250 211.496 C 185.967 211.400,186.683 210.790,185.485 209.593 C 185.218 209.326,185.000 208.980,185.000 208.824 C 185.000 208.363,182.165 205.625,181.688 205.625 C 181.447 205.625,181.250 205.494,181.250 205.334 C 181.250 205.037,180.036 204.513,179.609 204.626 C 179.480 204.660,179.375 204.561,179.375 204.406 C 179.375 204.011,177.579 203.427,177.022 203.640 C 176.769 203.737,176.563 203.681,176.563 203.516 C 176.563 203.346,175.342 203.214,173.750 203.213 C 172.203 203.211,170.938 203.341,170.938 203.501 M249.585 203.505 C 249.384 203.632,248.984 203.663,248.698 203.574 C 248.412 203.485,248.086 203.561,247.973 203.742 C 247.861 203.924,247.638 203.992,247.478 203.893 C 247.318 203.794,247.188 203.858,247.188 204.034 C 247.188 204.211,246.977 204.274,246.719 204.176 C 246.453 204.074,246.250 204.168,246.250 204.394 C 246.250 204.613,246.158 204.700,246.047 204.588 C 245.935 204.476,245.643 204.629,245.398 204.927 C 245.102 205.288,245.021 205.313,245.156 205.000 C 245.268 204.742,245.137 204.804,244.867 205.138 C 244.596 205.471,244.375 205.619,244.375 205.465 C 244.375 205.312,243.570 206.023,242.587 207.046 C 241.604 208.069,240.830 209.012,240.868 209.141 C 240.906 209.270,240.773 209.375,240.573 209.375 C 240.372 209.375,240.295 209.462,240.402 209.568 C 240.508 209.675,240.390 209.967,240.138 210.219 C 239.887 210.470,239.762 210.805,239.859 210.963 C 239.957 211.121,239.902 211.250,239.737 211.250 C 238.650 211.250,238.228 218.636,239.229 220.144 C 239.567 220.653,239.674 220.965,239.466 220.837 C 239.254 220.706,239.383 221.314,239.763 222.226 C 240.872 224.896,245.291 229.187,246.293 228.567 C 246.506 228.436,246.576 228.475,246.461 228.662 C 246.343 228.852,247.043 229.203,248.167 229.518 C 250.698 230.228,253.294 230.486,253.561 230.053 C 253.676 229.867,253.965 229.790,254.204 229.881 C 254.443 229.973,254.948 229.882,255.327 229.680 C 255.705 229.477,256.337 229.276,256.730 229.233 C 259.325 228.948,265.460 222.440,264.538 220.949 C 264.446 220.800,264.548 220.620,264.764 220.548 C 265.037 220.457,265.156 219.621,265.156 217.787 L 265.156 215.156 259.375 215.107 C 256.195 215.079,252.849 215.133,251.939 215.226 L 250.284 215.395 250.376 217.151 L 250.469 218.906 255.000 218.988 C 257.492 219.032,259.699 219.130,259.903 219.205 C 260.898 219.569,257.407 224.608,255.925 224.947 C 255.677 225.004,255.392 225.184,255.290 225.348 C 255.189 225.512,254.886 225.562,254.616 225.458 C 254.346 225.355,254.055 225.385,253.968 225.526 C 253.832 225.745,250.441 225.812,250.000 225.604 C 249.914 225.563,249.703 225.510,249.531 225.485 C 249.359 225.460,248.902 225.266,248.516 225.053 C 248.129 224.840,247.808 224.776,247.803 224.911 C 247.798 225.046,247.650 224.910,247.475 224.609 C 247.300 224.309,246.988 224.060,246.781 224.057 C 246.575 224.054,246.055 223.676,245.625 223.217 C 245.195 222.758,245.055 222.491,245.313 222.624 C 245.570 222.758,245.430 222.561,245.000 222.188 C 244.570 221.814,244.393 221.598,244.606 221.708 C 244.861 221.839,244.930 221.743,244.807 221.424 C 244.705 221.159,244.531 220.997,244.420 221.066 C 244.309 221.134,244.197 220.834,244.171 220.398 C 244.145 219.962,244.004 219.519,243.859 219.412 C 243.713 219.306,243.574 218.797,243.549 218.281 C 243.524 217.766,243.483 217.063,243.457 216.719 C 242.864 208.790,253.307 204.229,258.125 210.313 L 259.134 211.587 261.673 211.496 C 264.408 211.399,265.131 210.837,263.856 209.797 C 263.525 209.528,263.481 209.416,263.750 209.535 C 264.008 209.649,263.867 209.436,263.438 209.063 C 263.008 208.689,262.867 208.495,263.125 208.631 C 263.383 208.768,262.836 208.112,261.911 207.174 C 260.985 206.236,260.106 205.504,259.958 205.547 C 259.809 205.590,259.688 205.461,259.688 205.260 C 259.688 205.060,259.605 204.978,259.505 205.078 C 259.405 205.178,259.043 204.980,258.700 204.637 C 258.357 204.295,257.877 204.091,257.632 204.185 C 257.388 204.279,257.188 204.211,257.188 204.034 C 257.188 203.858,257.047 203.800,256.875 203.906 C 256.703 204.012,256.563 203.935,256.563 203.735 C 256.563 203.501,256.280 203.441,255.781 203.566 C 255.352 203.674,255.000 203.632,255.000 203.473 C 255.000 203.135,250.127 203.164,249.585 203.505 M278.365 203.487 C 278.147 203.624,277.723 203.659,277.422 203.566 C 277.121 203.472,276.875 203.541,276.875 203.719 C 276.875 203.897,276.682 203.969,276.447 203.878 C 276.211 203.788,275.789 203.943,275.509 204.223 C 275.229 204.503,275.000 204.648,275.000 204.546 C 275.000 204.443,274.575 204.579,274.055 204.848 C 272.833 205.480,269.974 208.143,270.173 208.464 C 270.257 208.600,270.147 208.826,269.928 208.965 C 269.393 209.307,268.477 210.502,268.984 210.198 C 269.548 209.859,269.466 210.112,268.740 210.950 C 268.390 211.353,268.171 211.857,268.253 212.071 C 268.335 212.285,268.256 212.508,268.077 212.568 C 267.894 212.629,267.677 214.154,267.579 216.073 C 267.447 218.649,267.495 219.415,267.776 219.241 C 268.037 219.080,268.103 219.251,268.000 219.819 C 267.920 220.262,267.993 220.625,268.164 220.625 C 268.335 220.625,268.390 220.762,268.287 220.929 C 267.911 221.536,269.720 224.628,271.356 226.175 C 274.016 228.691,278.620 230.572,281.240 230.215 C 281.847 230.132,282.976 229.981,283.749 229.879 C 284.522 229.777,285.202 229.551,285.260 229.376 C 285.318 229.202,285.489 229.135,285.640 229.228 C 287.111 230.137,294.149 223.278,293.245 221.816 C 293.113 221.603,293.170 221.553,293.389 221.689 C 293.725 221.896,293.874 221.461,293.834 220.391 C 293.826 220.176,293.928 220.000,294.061 220.000 C 294.985 220.000,294.383 211.617,293.436 211.302 C 293.263 211.244,293.201 211.068,293.298 210.911 C 293.395 210.754,293.302 210.625,293.091 210.625 C 292.881 210.625,292.796 210.537,292.904 210.429 C 293.194 210.140,292.290 208.544,291.711 208.321 C 291.435 208.216,291.292 207.997,291.393 207.834 C 291.574 207.540,289.303 205.514,288.903 205.614 C 288.788 205.643,288.485 205.411,288.230 205.099 C 287.951 204.758,287.847 204.719,287.969 205.000 C 288.104 205.313,288.023 205.288,287.727 204.927 C 287.482 204.629,287.190 204.476,287.078 204.588 C 286.967 204.700,286.875 204.613,286.875 204.394 C 286.875 204.168,286.672 204.074,286.406 204.176 C 286.148 204.274,285.938 204.211,285.938 204.034 C 285.938 203.858,285.807 203.794,285.647 203.893 C 285.487 203.992,285.264 203.924,285.152 203.742 C 285.039 203.561,284.678 203.498,284.349 203.602 C 284.019 203.707,283.750 203.657,283.750 203.491 C 283.750 203.131,278.938 203.126,278.365 203.487 M221.328 203.671 C 218.539 203.731,216.875 203.888,216.875 204.090 C 216.875 204.267,216.747 204.333,216.592 204.237 C 216.436 204.140,216.367 204.308,216.438 204.609 C 216.692 205.681,216.714 229.310,216.461 228.955 C 216.287 228.713,216.245 228.748,216.330 229.063 C 216.432 229.434,216.892 229.509,218.542 229.425 C 220.127 229.344,220.626 229.418,220.630 229.737 C 220.633 230.054,220.708 230.042,220.938 229.688 C 221.104 229.430,221.243 227.004,221.245 224.297 L 221.250 219.375 222.578 219.377 C 223.746 219.379,223.977 219.501,224.494 220.393 C 224.818 220.950,226.027 223.057,227.181 225.074 C 228.335 227.091,229.383 228.637,229.510 228.511 C 229.636 228.385,229.711 228.422,229.677 228.594 C 229.537 229.286,229.718 229.622,230.313 229.778 C 230.657 229.868,230.860 229.814,230.763 229.658 C 230.665 229.499,231.554 229.375,232.794 229.375 C 234.714 229.375,235.674 229.027,234.674 228.693 C 234.494 228.633,234.324 228.274,234.295 227.894 C 234.267 227.514,234.053 227.131,233.821 227.042 C 233.588 226.952,233.485 226.738,233.592 226.565 C 233.699 226.392,233.630 226.250,233.438 226.250 C 233.245 226.250,233.176 226.108,233.283 225.935 C 233.390 225.762,233.258 225.537,232.990 225.434 C 232.723 225.331,232.581 225.121,232.676 224.967 C 232.772 224.813,232.692 224.688,232.500 224.688 C 232.308 224.688,232.238 224.546,232.345 224.373 C 232.452 224.200,232.321 223.974,232.053 223.871 C 231.785 223.769,231.644 223.559,231.739 223.405 C 231.834 223.251,231.755 223.125,231.563 223.125 C 231.370 223.125,231.301 222.983,231.408 222.810 C 231.515 222.637,231.383 222.412,231.115 222.309 C 230.848 222.206,230.706 221.996,230.801 221.842 C 230.897 221.688,230.825 221.563,230.643 221.563 C 230.461 221.563,230.341 221.457,230.377 221.328 C 230.412 221.199,230.197 220.636,229.899 220.076 L 229.356 219.058 230.225 218.676 C 230.703 218.466,231.197 218.150,231.323 217.975 C 231.450 217.800,231.555 217.788,231.558 217.949 C 231.568 218.601,233.566 216.302,234.255 214.844 C 235.221 212.801,235.063 207.500,234.037 207.500 C 233.879 207.500,233.750 207.317,233.750 207.093 C 233.750 206.206,230.635 203.826,229.994 204.223 C 229.825 204.327,229.688 204.247,229.688 204.044 C 229.688 203.831,229.426 203.746,229.063 203.840 C 228.719 203.930,228.359 203.876,228.263 203.721 C 228.167 203.565,227.569 203.468,226.935 203.506 C 226.300 203.544,223.777 203.618,221.328 203.671 M198.201 203.958 C 197.985 204.045,197.888 204.244,197.985 204.402 C 198.082 204.559,197.998 204.688,197.798 204.688 C 197.597 204.688,197.514 204.898,197.613 205.156 C 197.712 205.414,197.633 205.625,197.438 205.625 C 197.243 205.625,197.176 205.718,197.289 205.831 C 197.402 205.944,197.338 206.225,197.147 206.456 C 196.955 206.686,196.903 206.875,197.031 206.875 C 197.159 206.875,197.094 207.080,196.886 207.330 C 196.679 207.580,196.613 207.954,196.740 208.160 C 196.887 208.396,196.839 208.452,196.611 208.311 C 196.276 208.104,196.223 208.230,196.125 209.453 C 196.108 209.668,196.011 209.914,195.911 210.000 C 195.544 210.313,195.013 212.268,195.208 212.584 C 195.333 212.787,195.254 212.814,194.999 212.656 C 194.694 212.467,194.634 212.574,194.765 213.077 C 194.879 213.513,194.823 213.677,194.605 213.543 C 194.392 213.411,194.342 213.526,194.468 213.855 C 194.578 214.141,194.517 214.375,194.332 214.375 C 194.147 214.375,194.077 214.586,194.176 214.844 C 194.274 215.102,194.196 215.313,194.001 215.313 C 193.805 215.313,193.738 215.405,193.851 215.518 C 193.965 215.631,193.900 215.912,193.709 216.143 C 193.518 216.374,193.466 216.563,193.594 216.563 C 193.722 216.563,193.657 216.767,193.449 217.018 C 193.241 217.268,193.162 217.619,193.273 217.799 C 193.384 217.978,193.317 218.125,193.125 218.125 C 192.933 218.125,192.863 218.266,192.969 218.438 C 193.075 218.609,192.998 218.750,192.798 218.750 C 192.597 218.750,192.511 218.952,192.605 219.199 C 192.700 219.445,192.638 219.693,192.469 219.750 C 192.299 219.807,192.136 220.167,192.107 220.552 C 192.078 220.936,191.948 221.250,191.818 221.250 C 191.688 221.250,191.663 221.461,191.762 221.719 C 191.861 221.977,191.778 222.188,191.577 222.188 C 191.377 222.188,191.294 222.318,191.393 222.478 C 191.492 222.638,191.420 222.864,191.234 222.979 C 191.047 223.094,190.970 223.385,191.063 223.625 C 191.155 223.866,191.079 224.063,190.894 224.063 C 190.709 224.063,190.639 224.273,190.738 224.531 C 190.837 224.789,190.773 225.000,190.597 225.000 C 190.420 225.000,190.363 225.141,190.469 225.313 C 190.575 225.484,190.498 225.625,190.298 225.625 C 190.097 225.625,190.014 225.836,190.113 226.094 C 190.212 226.352,190.148 226.563,189.971 226.563 C 189.793 226.563,189.673 226.809,189.704 227.109 C 189.801 228.064,189.696 228.480,189.404 228.299 C 189.248 228.203,189.194 228.406,189.284 228.750 C 189.499 229.570,193.750 229.719,193.750 228.906 C 193.750 228.648,193.879 228.438,194.036 228.438 C 194.194 228.438,194.592 227.629,194.922 226.641 L 195.520 224.844 200.891 224.758 L 206.263 224.673 206.452 225.618 C 206.556 226.137,206.764 226.563,206.914 226.563 C 207.064 226.563,207.171 226.668,207.150 226.797 C 207.034 227.537,207.228 228.449,207.471 228.299 C 207.627 228.203,207.675 228.428,207.578 228.798 C 207.466 229.226,207.522 229.398,207.731 229.269 C 207.911 229.158,208.140 229.276,208.239 229.533 C 208.337 229.790,208.598 229.998,208.818 229.995 C 209.098 229.992,209.078 229.899,208.750 229.688 C 208.421 229.475,208.902 229.383,210.357 229.380 C 211.942 229.376,212.477 229.260,212.619 228.890 C 212.741 228.573,212.680 228.483,212.443 228.629 C 212.204 228.776,212.147 228.682,212.273 228.353 C 212.379 228.078,212.304 227.799,212.107 227.734 C 211.910 227.668,211.732 227.272,211.711 226.854 C 211.654 225.724,211.220 224.375,210.913 224.375 C 210.766 224.375,210.726 224.164,210.824 223.906 C 210.923 223.648,210.840 223.438,210.640 223.438 C 210.440 223.438,210.354 223.310,210.451 223.154 C 210.645 222.839,209.376 219.276,209.014 219.120 C 208.888 219.066,208.854 218.843,208.938 218.624 C 209.022 218.404,208.875 218.046,208.611 217.827 C 208.348 217.608,208.209 217.304,208.304 217.150 C 208.516 216.807,207.779 214.688,207.447 214.688 C 207.315 214.688,207.288 214.477,207.387 214.219 C 207.486 213.961,207.403 213.750,207.202 213.750 C 207.002 213.750,206.925 213.609,207.031 213.438 C 207.137 213.266,207.080 213.125,206.903 213.125 C 206.727 213.125,206.663 212.914,206.762 212.656 C 206.861 212.398,206.801 212.188,206.629 212.188 C 206.457 212.188,206.233 211.969,206.131 211.703 C 206.004 211.373,206.069 211.292,206.332 211.450 C 206.638 211.634,206.638 211.583,206.331 211.203 C 206.117 210.939,206.035 210.631,206.149 210.518 C 206.262 210.405,206.195 210.313,205.999 210.313 C 205.804 210.313,205.726 210.102,205.824 209.844 C 205.923 209.586,205.879 209.375,205.725 209.375 C 205.571 209.375,205.422 209.061,205.393 208.677 C 205.364 208.292,205.193 207.929,205.012 207.869 C 204.831 207.808,204.759 207.637,204.852 207.487 C 204.944 207.337,204.783 206.681,204.493 206.029 C 204.203 205.377,203.995 204.716,204.031 204.560 C 204.190 203.862,199.611 203.389,198.201 203.958 M284.529 207.948 C 287.986 209.392,289.512 212.025,289.568 216.641 C 289.588 218.316,289.498 219.688,289.368 219.688 C 289.237 219.688,289.048 220.014,288.948 220.413 C 288.848 220.813,288.408 221.666,287.971 222.310 C 287.534 222.954,287.320 223.393,287.495 223.285 C 288.046 222.944,287.840 223.317,287.134 223.936 C 286.680 224.334,286.533 224.376,286.689 224.063 C 286.817 223.805,286.631 223.926,286.274 224.331 C 285.917 224.737,285.621 224.948,285.615 224.800 C 285.610 224.652,285.434 224.742,285.224 225.000 C 285.015 225.258,284.492 225.508,284.063 225.556 C 283.633 225.604,283.234 225.780,283.177 225.947 C 283.033 226.367,278.750 226.341,278.750 225.919 C 278.750 225.737,278.619 225.669,278.459 225.768 C 278.299 225.867,278.078 225.802,277.969 225.625 C 277.859 225.448,277.638 225.383,277.478 225.482 C 277.318 225.581,277.188 225.516,277.188 225.337 C 277.188 225.158,276.871 224.929,276.484 224.827 C 275.624 224.601,273.808 222.357,273.168 220.730 C 272.909 220.071,272.616 219.496,272.517 219.452 C 272.231 219.326,272.505 214.328,272.864 213.125 C 274.277 208.390,279.761 205.955,284.529 207.948 M229.093 208.471 C 229.592 209.004,230.000 209.769,230.000 210.171 C 230.000 210.572,230.141 210.988,230.313 211.094 C 230.484 211.200,230.625 211.498,230.625 211.756 C 230.625 212.031,230.476 212.132,230.263 212.001 C 230.015 211.848,229.957 211.989,230.078 212.451 C 230.175 212.822,230.149 213.125,230.021 213.125 C 229.893 213.125,229.627 213.479,229.430 213.911 C 229.233 214.343,228.683 214.853,228.208 215.044 C 227.733 215.234,227.034 215.534,226.655 215.709 C 226.207 215.916,225.172 215.930,223.686 215.748 L 221.406 215.469 221.319 211.484 L 221.231 207.500 224.709 207.500 L 228.187 207.500 229.093 208.471 M202.188 212.969 C 202.771 214.773,203.369 216.250,203.517 216.250 C 203.666 216.250,203.716 216.365,203.629 216.505 C 203.452 216.792,204.270 219.340,204.709 219.870 C 204.866 220.059,204.902 220.306,204.789 220.419 C 204.492 220.716,196.803 220.673,196.927 220.375 C 196.984 220.238,197.858 217.777,198.869 214.907 C 199.879 212.036,200.801 209.688,200.917 209.688 C 201.032 209.688,201.604 211.164,202.188 212.969 M209.766 229.903 C 210.066 229.982,210.559 229.982,210.859 229.903 C 211.160 229.824,210.914 229.760,210.313 229.760 C 209.711 229.760,209.465 229.824,209.766 229.903 " stroke="none" fill="#040404" fill-rule="evenodd"/><path id="path3" d="M85.142 207.266 L 83.906 208.594 85.234 207.358 C 85.965 206.679,86.563 206.081,86.563 206.030 C 86.563 205.794,86.290 206.030,85.142 207.266 " stroke="none" fill="#9c9c9d" fill-rule="evenodd"/><path id="path4" d="M169.297 163.346 C 169.684 163.420,170.316 163.420,170.703 163.346 C 171.090 163.271,170.773 163.210,170.000 163.210 C 169.227 163.210,168.910 163.271,169.297 163.346 M184.271 163.646 C 184.156 163.760,184.065 164.007,184.067 164.193 C 184.070 164.407,184.159 164.394,184.309 164.158 C 184.440 163.953,185.387 163.734,186.414 163.671 L 188.281 163.556 186.380 163.497 C 185.335 163.464,184.385 163.531,184.271 163.646 M199.381 163.538 C 199.598 163.767,201.133 164.005,202.597 164.037 C 203.453 164.055,203.725 164.172,203.566 164.453 C 203.391 164.763,203.431 164.764,203.761 164.458 C 203.990 164.246,204.116 164.016,204.042 163.946 C 203.832 163.751,199.197 163.345,199.381 163.538 M208.363 163.659 C 208.752 163.733,209.314 163.730,209.613 163.652 C 209.912 163.574,209.594 163.513,208.906 163.516 C 208.219 163.520,207.974 163.584,208.363 163.659 M224.141 163.661 C 224.613 163.733,225.387 163.733,225.859 163.661 C 226.332 163.590,225.945 163.531,225.000 163.531 C 224.055 163.531,223.668 163.590,224.141 163.661 M313.949 163.906 C 313.871 164.110,317.057 164.219,323.125 164.219 C 329.194 164.219,332.379 164.110,332.300 163.906 C 332.224 163.708,328.873 163.594,323.125 163.594 C 317.376 163.594,314.025 163.708,313.949 163.906 M240.204 163.984 C 240.124 164.113,240.784 164.178,241.670 164.129 C 244.334 163.979,244.658 163.838,242.440 163.793 C 241.290 163.769,240.284 163.855,240.204 163.984 M248.832 163.974 C 249.307 164.046,250.011 164.044,250.395 163.970 C 250.779 163.896,250.391 163.837,249.531 163.839 C 248.672 163.842,248.357 163.902,248.832 163.974 M291.562 163.984 C 291.562 164.113,292.300 164.178,293.203 164.129 C 295.954 163.977,296.214 163.837,293.828 163.793 C 292.582 163.769,291.562 163.855,291.562 163.984 M298.828 163.980 C 299.645 164.044,300.980 164.044,301.797 163.980 C 302.613 163.915,301.945 163.863,300.313 163.863 C 298.680 163.863,298.012 163.915,298.828 163.980 M221.462 165.483 C 220.728 167.023,220.831 167.285,221.599 165.830 C 221.947 165.169,222.177 164.573,222.110 164.506 C 222.042 164.438,221.751 164.878,221.462 165.483 M283.183 176.303 C 283.151 177.105,283.034 178.019,282.923 178.334 C 282.769 178.769,282.811 178.823,283.097 178.560 C 283.332 178.344,283.430 177.583,283.357 176.529 L 283.241 174.844 283.183 176.303 M280.486 183.730 L 279.254 185.156 280.627 183.839 C 281.383 183.114,281.937 182.473,281.860 182.413 C 281.782 182.353,281.164 182.946,280.486 183.730 M268.125 183.906 C 268.708 184.508,269.255 185.000,269.341 185.000 C 269.427 185.000,269.021 184.508,268.438 183.906 C 267.854 183.305,267.307 182.813,267.221 182.813 C 267.135 182.813,267.542 183.305,268.125 183.906 M218.438 187.642 L 218.438 189.659 216.328 189.768 L 214.219 189.878 216.484 189.939 L 218.750 190.000 218.750 187.813 C 218.750 186.609,218.680 185.625,218.594 185.625 C 218.508 185.625,218.438 186.533,218.438 187.642 M244.411 188.810 C 244.379 189.566,244.240 189.664,243.047 189.771 L 241.719 189.891 243.057 189.945 C 244.464 190.003,244.876 189.624,244.594 188.534 C 244.496 188.156,244.435 188.248,244.411 188.810 M320.974 189.297 C 320.943 189.898,321.085 189.993,321.953 189.953 C 322.870 189.911,322.887 189.894,322.129 189.778 C 321.667 189.707,321.226 189.412,321.149 189.122 C 321.050 188.747,320.999 188.798,320.974 189.297 M324.688 189.688 L 323.906 189.938 324.766 189.969 C 325.238 189.986,325.625 189.859,325.625 189.688 C 325.625 189.516,325.590 189.389,325.547 189.406 C 325.504 189.423,325.117 189.550,324.688 189.688 M184.926 189.909 C 185.314 189.983,185.877 189.980,186.176 189.902 C 186.474 189.824,186.156 189.763,185.469 189.766 C 184.781 189.770,184.537 189.834,184.926 189.909 M292.422 189.908 C 292.809 189.983,293.441 189.983,293.828 189.908 C 294.215 189.834,293.898 189.773,293.125 189.773 C 292.352 189.773,292.035 189.834,292.422 189.908 M198.017 203.672 C 197.937 203.801,199.180 203.906,200.780 203.906 C 202.380 203.906,203.624 203.801,203.545 203.672 C 203.465 203.543,202.222 203.438,200.781 203.438 C 199.341 203.438,198.097 203.543,198.017 203.672 M216.567 203.984 C 216.571 204.364,216.646 204.414,216.814 204.150 C 216.981 203.888,218.419 203.738,221.419 203.672 L 225.781 203.575 221.172 203.506 C 216.963 203.443,216.563 203.485,216.567 203.984 M251.176 215.221 C 251.564 215.296,252.127 215.293,252.426 215.215 C 252.724 215.136,252.406 215.075,251.719 215.079 C 251.031 215.082,250.787 215.146,251.176 215.221 M224.457 215.849 C 224.932 215.921,225.636 215.919,226.020 215.845 C 226.404 215.771,226.016 215.712,225.156 215.714 C 224.297 215.717,223.982 215.777,224.457 215.849 M216.641 219.531 C 216.645 220.219,216.709 220.463,216.784 220.074 C 216.858 219.686,216.855 219.123,216.777 218.824 C 216.699 218.526,216.638 218.844,216.641 219.531 M180.451 222.006 C 180.117 222.249,179.927 222.532,180.028 222.633 C 180.129 222.734,180.467 222.534,180.780 222.189 C 181.443 221.456,181.307 221.380,180.451 222.006 M182.734 222.101 C 183.293 222.170,184.207 222.170,184.766 222.101 C 185.324 222.032,184.867 221.975,183.750 221.975 C 182.633 221.975,182.176 222.032,182.734 222.101 M173.051 226.159 C 173.439 226.233,174.002 226.230,174.301 226.152 C 174.599 226.074,174.281 226.013,173.594 226.016 C 172.906 226.020,172.662 226.084,173.051 226.159 M279.766 226.165 C 280.410 226.233,281.465 226.233,282.109 226.165 C 282.754 226.098,282.227 226.043,280.938 226.043 C 279.648 226.043,279.121 226.098,279.766 226.165 M189.386 228.104 C 188.588 229.595,188.888 229.844,191.484 229.844 C 193.844 229.844,193.908 229.824,193.964 229.063 C 193.997 228.611,193.955 228.512,193.863 228.828 C 193.731 229.281,193.332 229.375,191.540 229.375 C 189.311 229.375,189.098 229.227,189.698 228.104 C 189.876 227.772,189.952 227.500,189.866 227.500 C 189.780 227.500,189.564 227.772,189.386 228.104 M234.268 228.047 C 234.367 228.434,234.572 228.750,234.724 228.750 C 234.876 228.750,235.000 228.891,235.000 229.063 C 235.000 229.238,234.009 229.393,232.734 229.416 L 230.469 229.457 232.640 229.709 C 235.525 230.043,235.935 229.727,234.693 228.125 C 234.108 227.371,234.094 227.368,234.268 228.047 M212.363 228.672 C 212.536 229.349,212.465 229.375,210.438 229.375 C 207.951 229.375,207.927 229.672,210.403 229.815 C 212.581 229.941,213.066 229.689,212.557 228.696 C 212.188 227.976,212.186 227.976,212.363 228.672 M217.214 229.487 C 217.545 229.774,220.625 229.941,220.625 229.673 C 220.625 229.509,219.828 229.375,218.854 229.375 C 217.880 229.375,217.142 229.426,217.214 229.487 " stroke="none" fill="#242424" fill-rule="evenodd"/></g></svg>